<svg width="16" height="15" viewBox="0 0 16 15" fill="none" xmlns="http://www.w3.org/2000/svg">
<path d="M12.5 13H3.5V14.5H2V13H1.25C1.05109 13 0.860322 12.921 0.71967 12.7803C0.579018 12.6397 0.5 12.4489 0.5 12.25V1C0.5 0.801088 0.579018 0.610322 0.71967 0.46967C0.860322 0.329018 1.05109 0.25 1.25 0.25H14.75C14.9489 0.25 15.1397 0.329018 15.2803 0.46967C15.421 0.610322 15.5 0.801088 15.5 1V12.25C15.5 12.4489 15.421 12.6397 15.2803 12.7803C15.1397 12.921 14.9489 13 14.75 13H14V14.5H12.5V13ZM7.25 8.4055V10.75H8.75V8.4055C9.45537 8.2212 10.0695 7.78648 10.4778 7.1825C10.8862 6.57851 11.0607 5.84657 10.9688 5.12333C10.877 4.4001 10.525 3.73501 9.97871 3.25227C9.43239 2.76953 8.72904 2.50213 8 2.5C7.2693 2.49928 6.56346 2.76526 6.01496 3.24803C5.46645 3.7308 5.113 4.39716 5.02094 5.12203C4.92888 5.84691 5.10454 6.58047 5.51496 7.18502C5.92537 7.78957 6.54232 8.22355 7.25 8.4055ZM8 7C7.60218 7 7.22064 6.84196 6.93934 6.56066C6.65804 6.27936 6.5 5.89782 6.5 5.5C6.5 5.10218 6.65804 4.72064 6.93934 4.43934C7.22064 4.15804 7.60218 4 8 4C8.39782 4 8.77936 4.15804 9.06066 4.43934C9.34196 4.72064 9.5 5.10218 9.5 5.5C9.5 5.89782 9.34196 6.27936 9.06066 6.56066C8.77936 6.84196 8.39782 7 8 7Z" fill="white"/>
</svg>
